<?xml version="1.0" encoding="utf-8"?>
<!-- Generator: Adobe Illustrator 25.4.1, SVG Export Plug-In . SVG Version: 6.00 Build 0)  -->
<svg version="1.1" id="Layer_1" xmlns="http://www.w3.org/2000/svg" xmlns:xlink="http://www.w3.org/1999/xlink" x="0px" y="0px"
	 viewBox="0 0 299.89 82.44" style="enable-background:new 0 0 299.89 82.44;" xml:space="preserve">
<style type="text/css">
	.st0{fill:#BDD630;}
	.st1{fill:#106735;}
	.st2{fill:none;stroke:#106735;stroke-width:2;}
	.st3{font-family:'Lato-Regular';}
	.st4{font-size:41.0524px;}
	.st5{font-family:'Lato-Bold';}
	.st6{font-size:13.6089px;}
</style>
<g>
	<g>
		<path class="st0" d="M78.89,41.22c0,20.81-16.87,37.67-37.67,37.67c-20.81,0-37.67-16.87-37.67-37.67
			c0-20.8,16.87-37.67,37.67-37.67C62.03,3.55,78.89,20.42,78.89,41.22z"/>
		<g>
			<path class="st1" d="M23.17,22.92c0,0,0.36-10.74,2.82-15.47c0,0,2.75,5.48,5.39,7.63c2.82,2.3,6.07,7.77,5.42,15.73
				c0,0-0.07-6.8-4.41-11.06c-4.34-4.27-6.22-7.77-6.58-8.5C25.81,11.25,23.89,18.63,23.17,22.92z"/>
			<path class="st1" d="M41.68,15.52c0,0,7.93-7.25,13.04-8.8c0,0-1.99,5.8-1.69,9.18c0.33,3.63-1.31,9.78-7.45,14.87
				c0,0,4.81-4.8,4.83-10.89c0.02-6.08,1.21-9.88,1.47-10.64C51.88,9.24,45.26,13.04,41.68,15.52z"/>
			<path class="st1" d="M59.06,22.96c0,0,10.74,0.04,15.55,2.36c0,0-5.4,2.92-7.47,5.61c-2.22,2.89-7.59,6.3-15.56,5.89
				c0,0,6.79-0.27,10.93-4.74c4.14-4.46,7.58-6.45,8.3-6.83C70.81,25.26,63.37,23.56,59.06,22.96z"/>
			<path class="st1" d="M66.94,41.09c0,0,7.69,7.51,9.52,12.52c0,0-5.9-1.66-9.26-1.17c-3.6,0.53-9.84-0.76-15.27-6.6
				c0,0,5.07,4.53,11.14,4.2c6.08-0.33,9.93,0.65,10.71,0.87C73.78,50.91,69.62,44.51,66.94,41.09z"/>
			<path class="st1" d="M59.55,59.27c0,0-0.12,10.74-2.47,15.54c0,0-2.88-5.41-5.56-7.5c-2.87-2.24-6.25-7.63-5.78-15.6
				c0,0,0.23,6.79,4.66,10.96c4.43,4.17,6.39,7.63,6.77,8.34C57.17,71.01,58.92,63.58,59.55,59.27z"/>
			<path class="st1" d="M41.42,67.07c0,0-7.74,7.45-12.81,9.13c0,0,1.84-5.85,1.45-9.23c-0.42-3.61,1.06-9.81,7.07-15.06
				c0,0-4.68,4.93-4.55,11.01c0.14,6.08-0.96,9.91-1.2,10.68C31.39,73.6,37.91,69.64,41.42,67.07z"/>
			<path class="st1" d="M23.01,59.47c0,0-10.74-0.13-15.53-2.49c0,0,5.42-2.87,7.51-5.55c2.24-2.87,7.64-6.24,15.61-5.76
				c0,0-6.79,0.22-10.97,4.65c-4.17,4.43-7.64,6.38-8.35,6.76C11.28,57.08,18.7,58.84,23.01,59.47z"/>
			<path class="st1" d="M15.35,41.02c0,0-7.36-7.83-8.98-12.91c0,0,5.83,1.91,9.21,1.56c3.62-0.38,9.79,1.18,14.97,7.25
				c0,0-4.87-4.74-10.95-4.67c-6.08,0.07-9.9-1.07-10.66-1.33C8.94,30.91,12.82,37.48,15.35,41.02z"/>
		</g>
		<path class="st2" d="M81.44,41.22c0,22.21-18.01,40.22-40.22,40.22C19.01,81.44,1,63.44,1,41.22C1,19.01,19.01,1,41.22,1
			C63.44,1,81.44,19.01,81.44,41.22z"/>
	</g>
	<g>
		<text transform="matrix(1 0 0 1 90.5495 47.6198)"><tspan x="0" y="0" class="st1 st3 st4">Cogent</tspan><tspan x="131.57" y="0" class="st0 st5 st4">Hub</tspan></text>
		<g>
			<text transform="matrix(1 0 0 1 92.2905 67.7071)" class="st1 st3 st6">Analytics Driven Business Services</text>
		</g>
	</g>
</g>
</svg>
