<?xml version="1.0" encoding="utf-8"?>
<!-- Generator: Adobe Illustrator 25.2.1, SVG Export Plug-In . SVG Version: 6.00 Build 0)  -->
<svg version="1.1" id="Layer_1" xmlns="http://www.w3.org/2000/svg" xmlns:xlink="http://www.w3.org/1999/xlink" x="0px" y="0px"
	 viewBox="0 0 779.5 229.3" style="enable-background:new 0 0 779.5 229.3;" xml:space="preserve">
<style type="text/css">
	.Arched_x0020_Green{fill:url(#SVGID_1_);stroke:#FFFFFF;stroke-width:0.25;stroke-miterlimit:1;}
	.st0{fill:#BED730;}
	.st1{fill:#106735;}
</style>
<linearGradient id="SVGID_1_" gradientUnits="userSpaceOnUse" x1="117" y1="485.2809" x2="117.7071" y2="484.5738">
	<stop  offset="0" style="stop-color:#20AC4B"/>
	<stop  offset="0.9831" style="stop-color:#19361A"/>
</linearGradient>
<g>
	<path class="st0" d="M209.5,116.3c0,53.3-43.2,96.5-96.5,96.5c-53.3,0-96.5-43.2-96.5-96.5c0-53.3,43.2-96.5,96.5-96.5
		C166.3,19.8,209.5,63,209.5,116.3z"/>
	<g>
		<path class="st1" d="M66.8,69.5c0,0,0.9-27.5,7.2-39.6c0,0,7.1,14,13.8,19.5c7.2,5.9,15.6,19.9,13.9,40.3c0,0-0.2-17.4-11.3-28.3
			C79.3,50.4,74.5,41.4,73.5,39.5C73.5,39.5,68.6,58.5,66.8,69.5z"/>
		<path class="st1" d="M114.2,50.5c0,0,20.3-18.6,33.4-22.5c0,0-5.1,14.9-4.3,23.5c0.8,9.3-3.4,25-19.1,38.1
			c0,0,12.3-12.3,12.4-27.9c0-15.6,3.1-25.3,3.8-27.3C140.3,34.4,123.4,44.1,114.2,50.5z"/>
		<path class="st1" d="M158.7,69.6c0,0,27.5,0.1,39.8,6c0,0-13.8,7.5-19.1,14.4c-5.7,7.4-19.4,16.1-39.9,15.1c0,0,17.4-0.7,28-12.1
			c10.6-11.4,19.4-16.5,21.3-17.5C188.8,75.4,169.8,71.1,158.7,69.6z"/>
		<path class="st1" d="M178.9,116c0,0,19.7,19.2,24.4,32.1c0,0-15.1-4.3-23.7-3c-9.2,1.4-25.2-1.9-39.1-16.9c0,0,13,11.6,28.5,10.8
			c15.6-0.8,25.4,1.7,27.4,2.2C196.4,141.2,185.8,124.8,178.9,116z"/>
		<path class="st1" d="M160,162.6c0,0-0.3,27.5-6.3,39.8c0,0-7.4-13.9-14.2-19.2c-7.4-5.7-16-19.6-14.8-40c0,0,0.6,17.4,11.9,28.1
			c11.4,10.7,16.4,19.5,17.3,21.4C153.9,192.6,158.4,173.6,160,162.6z"/>
		<path class="st1" d="M113.5,182.5c0,0-19.8,19.1-32.8,23.4c0,0,4.7-15,3.7-23.6c-1.1-9.3,2.7-25.1,18.1-38.6
			c0,0-12,12.6-11.6,28.2c0.4,15.6-2.5,25.4-3.1,27.4C87.8,199.3,104.5,189.1,113.5,182.5z"/>
		<path class="st1" d="M66.4,163.1c0,0-27.5-0.3-39.8-6.4c0,0,13.9-7.4,19.2-14.2c5.7-7.3,19.6-16,40-14.7c0,0-17.4,0.6-28.1,11.9
			C47,151,38.2,156,36.3,157C36.3,157,55.3,161.5,66.4,163.1z"/>
		<path class="st1" d="M46.8,115.8c0,0-18.8-20.1-23-33.1c0,0,14.9,4.9,23.6,4c9.3-1,25.1,3,38.4,18.6c0,0-12.5-12.1-28.1-12
			c-15.6,0.2-25.4-2.7-27.3-3.4C30.3,89.9,40.3,106.8,46.8,115.8z"/>
	</g>
	<g>
		<path class="st1" d="M113,221.9c-58.2,0-105.6-47.4-105.6-105.6S54.8,10.7,113,10.7c58.2,0,105.6,47.4,105.6,105.6
			S171.3,221.9,113,221.9L113,221.9z M113,15.9c-55.4,0-100.5,45.1-100.5,100.5c0,55.4,45.1,100.5,100.5,100.5
			c55.4,0,100.5-45.1,100.5-100.5C213.5,60.9,168.4,15.9,113,15.9L113,15.9z"/>
	</g>
</g>
<g>
	<g>
		<path class="st1" d="M301.6,117.2c0.6,0,1.1,0.2,1.5,0.7l4,4.4c-3.1,3.6-6.8,6.4-11.2,8.4c-4.4,2-9.7,3-15.9,3
			c-5.4,0-10.4-0.9-14.8-2.8c-4.4-1.9-8.2-4.5-11.3-7.9c-3.1-3.4-5.5-7.4-7.3-12.2c-1.7-4.7-2.6-9.9-2.6-15.6
			c0-5.7,0.9-10.9,2.8-15.6c1.8-4.7,4.4-8.8,7.8-12.2c3.3-3.4,7.3-6,12-7.9c4.6-1.9,9.8-2.8,15.4-2.8c5.5,0,10.3,0.9,14.3,2.6
			c4,1.7,7.6,4,10.7,7l-3.3,4.7c-0.2,0.4-0.5,0.6-0.8,0.9c-0.3,0.2-0.8,0.3-1.4,0.3c-0.5,0-0.9-0.2-1.4-0.5
			c-0.5-0.3-1.1-0.7-1.8-1.2c-0.7-0.5-1.5-1-2.5-1.6c-0.9-0.6-2.1-1.1-3.4-1.6c-1.3-0.5-2.8-0.9-4.5-1.2c-1.7-0.3-3.7-0.5-5.9-0.5
			c-4,0-7.7,0.7-11.1,2.1c-3.3,1.4-6.2,3.4-8.7,5.9c-2.4,2.6-4.3,5.7-5.7,9.4c-1.3,3.7-2,7.8-2,12.4c0,4.7,0.7,8.9,2,12.6
			c1.3,3.7,3.2,6.8,5.5,9.3c2.3,2.5,5.1,4.5,8.3,5.8c3.2,1.3,6.6,2,10.3,2c2.2,0,4.3-0.1,6-0.4c1.8-0.3,3.4-0.7,5-1.2
			c1.5-0.6,2.9-1.3,4.3-2.1c1.3-0.9,2.6-1.9,4-3.1C300.5,117.4,301.1,117.2,301.6,117.2z"/>
		<path class="st1" d="M340.7,78.6c3.9,0,7.4,0.6,10.5,1.9c3.1,1.3,5.8,3.1,8,5.5c2.2,2.4,3.9,5.3,5,8.7c1.2,3.4,1.8,7.2,1.8,11.3
			c0,4.2-0.6,8-1.8,11.4c-1.2,3.4-2.9,6.2-5,8.6c-2.2,2.4-4.9,4.2-8,5.5c-3.1,1.3-6.7,1.9-10.5,1.9c-3.9,0-7.4-0.6-10.5-1.9
			c-3.1-1.3-5.8-3.1-8-5.5c-2.2-2.4-3.9-5.3-5.1-8.6c-1.2-3.4-1.8-7.2-1.8-11.4c0-4.2,0.6-7.9,1.8-11.3c1.2-3.4,2.9-6.3,5.1-8.7
			c2.2-2.4,4.9-4.2,8-5.5C333.2,79.3,336.8,78.6,340.7,78.6z M340.7,126.2c5.3,0,9.2-1.8,11.8-5.3c2.6-3.5,3.9-8.4,3.9-14.7
			c0-6.3-1.3-11.3-3.9-14.8c-2.6-3.5-6.5-5.3-11.8-5.3c-2.7,0-5,0.5-6.9,1.4c-2,0.9-3.6,2.2-4.9,3.9c-1.3,1.7-2.3,3.8-2.9,6.3
			c-0.6,2.5-1,5.3-1,8.5c0,3.2,0.3,6,1,8.5c0.6,2.5,1.6,4.6,2.9,6.3c1.3,1.7,3,3,4.9,3.9C335.7,125.7,338,126.2,340.7,126.2z"/>
		<path class="st1" d="M395.5,78.6c2.3,0,4.5,0.3,6.5,0.8c2,0.5,3.8,1.3,5.5,2.2h14.5V85c0,1.2-0.7,1.9-2.2,2.2l-6,0.8
			c1.2,2.3,1.8,4.8,1.8,7.6c0,2.6-0.5,5-1.5,7.1c-1,2.1-2.4,3.9-4.2,5.4c-1.8,1.5-3.9,2.7-6.3,3.5c-2.4,0.8-5.1,1.2-8,1.2
			c-2.5,0-4.8-0.3-7-0.9c-1.1,0.7-2,1.5-2.6,2.3c-0.6,0.8-0.9,1.6-0.9,2.4c0,1.3,0.5,2.3,1.5,3c1,0.7,2.4,1.2,4,1.4
			c1.7,0.3,3.6,0.4,5.7,0.4c2.1,0,4.3,0,6.5,0c2.2,0,4.4,0.2,6.5,0.6c2.1,0.4,4,1,5.7,1.9c1.7,0.9,3,2.1,4,3.7
			c1,1.6,1.5,3.6,1.5,6.1c0,2.3-0.6,4.5-1.7,6.7c-1.1,2.2-2.8,4.1-4.9,5.8c-2.1,1.7-4.8,3-7.8,4c-3.1,1-6.6,1.5-10.5,1.5
			c-3.9,0-7.3-0.4-10.2-1.2c-2.9-0.8-5.4-1.8-7.3-3.1c-1.9-1.3-3.4-2.8-4.3-4.5c-1-1.7-1.4-3.5-1.4-5.3c0-2.6,0.8-4.9,2.5-6.7
			c1.7-1.8,4-3.3,6.9-4.4c-1.5-0.7-2.7-1.6-3.6-2.8c-0.9-1.2-1.3-2.7-1.3-4.7c0-0.8,0.1-1.6,0.4-2.4c0.3-0.8,0.7-1.6,1.3-2.4
			c0.6-0.8,1.3-1.6,2.1-2.3c0.8-0.7,1.8-1.4,2.9-1.9c-2.6-1.5-4.7-3.4-6.2-5.9c-1.5-2.4-2.2-5.3-2.2-8.5c0-2.6,0.5-5,1.5-7.1
			c1-2.1,2.4-3.9,4.2-5.4c1.8-1.5,3.9-2.6,6.4-3.4C389.8,79,392.6,78.6,395.5,78.6z M412.1,135.4c0-1.4-0.4-2.4-1.1-3.3
			c-0.7-0.8-1.7-1.5-3-1.9c-1.3-0.4-2.7-0.8-4.4-1c-1.6-0.2-3.4-0.3-5.2-0.3c-1.8,0-3.7,0-5.6,0c-1.9,0-3.7-0.2-5.4-0.7
			c-2,0.9-3.6,2.1-4.9,3.5c-1.2,1.4-1.9,3-1.9,4.9c0,1.2,0.3,2.3,0.9,3.3c0.6,1,1.6,1.9,2.8,2.7c1.3,0.8,2.8,1.4,4.8,1.8
			c1.9,0.4,4.2,0.7,6.8,0.7c2.5,0,4.8-0.2,6.8-0.7c2-0.5,3.7-1.1,5.1-2c1.4-0.9,2.4-1.9,3.2-3.1
			C411.7,138.2,412.1,136.9,412.1,135.4z M395.5,106.7c1.9,0,3.6-0.3,5-0.8c1.5-0.5,2.7-1.3,3.7-2.2c1-0.9,1.7-2.1,2.2-3.4
			c0.5-1.3,0.7-2.8,0.7-4.3c0-3.3-1-5.9-3-7.8c-2-1.9-4.9-2.9-8.7-2.9c-3.8,0-6.6,1-8.6,2.9c-2,1.9-3,4.5-3,7.8c0,1.6,0.3,3,0.8,4.3
			c0.5,1.3,1.3,2.4,2.2,3.4c1,0.9,2.2,1.7,3.6,2.2C392,106.4,393.6,106.7,395.5,106.7z"/>
		<path class="st1" d="M452.4,78.6c3.2,0,6.1,0.5,8.8,1.6c2.7,1.1,5,2.6,7,4.6c2,2,3.5,4.5,4.6,7.5c1.1,3,1.7,6.3,1.7,10.1
			c0,1.5-0.2,2.5-0.5,2.9c-0.3,0.5-0.9,0.7-1.8,0.7h-35.4c0.1,3.4,0.5,6.3,1.4,8.8c0.8,2.5,2,4.6,3.5,6.2c1.5,1.7,3.2,2.9,5.3,3.7
			c2,0.8,4.3,1.2,6.8,1.2c2.3,0,4.4-0.3,6.1-0.8c1.7-0.5,3.2-1.1,4.4-1.8c1.2-0.6,2.3-1.2,3.1-1.8c0.8-0.5,1.5-0.8,2.1-0.8
			c0.8,0,1.4,0.3,1.8,0.9l2.6,3.4c-1.2,1.4-2.5,2.6-4.2,3.7c-1.6,1-3.3,1.9-5.2,2.6c-1.8,0.7-3.7,1.2-5.7,1.5
			c-2,0.3-3.9,0.5-5.8,0.5c-3.7,0-7.1-0.6-10.2-1.9c-3.1-1.2-5.8-3.1-8-5.5c-2.3-2.4-4-5.4-5.3-8.9c-1.3-3.5-1.9-7.6-1.9-12.2
			c0-3.7,0.6-7.2,1.7-10.4c1.1-3.2,2.8-6,4.9-8.4c2.1-2.4,4.7-4.2,7.8-5.6C445.1,79.3,448.5,78.6,452.4,78.6z M452.6,85.5
			c-4.5,0-8.1,1.3-10.7,3.9c-2.6,2.6-4.2,6.2-4.8,10.9h29c0-2.2-0.3-4.2-0.9-6c-0.6-1.8-1.5-3.4-2.6-4.7c-1.2-1.3-2.6-2.3-4.2-3
			C456.6,85.9,454.7,85.5,452.6,85.5z"/>
		<path class="st1" d="M486.4,132.7V79.5h5.6c1.3,0,2.2,0.6,2.5,1.9l0.7,5.8c2.3-2.6,4.9-4.6,7.8-6.2c2.9-1.6,6.2-2.4,9.9-2.4
			c2.9,0,5.5,0.5,7.7,1.4c2.2,1,4.1,2.3,5.6,4.1c1.5,1.8,2.6,3.9,3.4,6.4c0.8,2.5,1.2,5.2,1.2,8.3v33.9h-9.4V98.8
			c0-4-0.9-7.2-2.8-9.4c-1.8-2.2-4.7-3.3-8.4-3.3c-2.8,0-5.4,0.7-7.8,2c-2.4,1.3-4.6,3.1-6.7,5.4v39.2H486.4z"/>
		<path class="st1" d="M561,133.6c-4.2,0-7.4-1.2-9.7-3.5c-2.3-2.3-3.4-5.7-3.4-10.1V87.3h-6.4c-0.6,0-1-0.2-1.4-0.5
			c-0.4-0.3-0.6-0.9-0.6-1.6v-3.7l8.7-1.1l2.2-16.5c0.1-0.5,0.3-1,0.7-1.3c0.4-0.3,0.9-0.5,1.5-0.5h4.7v18.3h15.2v6.8h-15.2v32
			c0,2.2,0.5,3.9,1.6,5c1.1,1.1,2.5,1.6,4.2,1.6c1,0,1.8-0.1,2.6-0.4c0.7-0.3,1.3-0.6,1.9-0.9c0.5-0.3,1-0.6,1.3-0.9
			c0.4-0.3,0.7-0.4,1-0.4c0.5,0,0.9,0.3,1.3,0.9l2.7,4.5c-1.6,1.5-3.6,2.7-5.8,3.5C565.8,133.1,563.4,133.6,561,133.6z"/>
		<path class="st0" d="M648.2,132.7H634V99.5h-35.6v33.2h-14.2v-76h14.2v32.7H634V56.7h14.2V132.7z"/>
		<path class="st0" d="M674.7,78.8v34.3c0,3.3,0.8,5.8,2.3,7.6c1.5,1.8,3.8,2.7,6.9,2.7c2.2,0,4.3-0.5,6.3-1.5c2-1,3.8-2.4,5.6-4.1
			v-39h13v53.9h-7.9c-1.7,0-2.8-0.8-3.3-2.4l-0.9-4.3c-1.1,1.1-2.3,2.1-3.5,3.1c-1.2,0.9-2.5,1.7-3.8,2.4c-1.3,0.7-2.8,1.2-4.4,1.5
			c-1.6,0.4-3.2,0.6-5,0.6c-2.9,0-5.5-0.5-7.8-1.5c-2.3-1-4.2-2.4-5.7-4.2c-1.5-1.8-2.7-4-3.5-6.5c-0.8-2.5-1.2-5.3-1.2-8.3V78.8
			H674.7z"/>
		<path class="st0" d="M722.8,132.7V54.6h13v30.8c2.1-2.3,4.6-4.1,7.3-5.4c2.7-1.4,5.9-2,9.5-2c2.9,0,5.6,0.6,8.1,1.8
			c2.4,1.2,4.5,3,6.3,5.3c1.8,2.3,3.1,5.2,4.1,8.6c1,3.4,1.4,7.3,1.4,11.7c0,4-0.5,7.8-1.6,11.2c-1.1,3.4-2.6,6.4-4.7,8.9
			c-2,2.5-4.5,4.5-7.3,5.9c-2.9,1.4-6.1,2.1-9.6,2.1c-1.6,0-3.2-0.2-4.5-0.5c-1.4-0.3-2.6-0.8-3.7-1.4c-1.1-0.6-2.2-1.3-3.1-2.2
			c-1-0.9-1.9-1.8-2.8-2.9l-0.6,3.6c-0.2,0.9-0.6,1.6-1.1,1.9c-0.5,0.4-1.2,0.6-2.1,0.6H722.8z M748,88c-2.7,0-5,0.6-6.9,1.7
			c-1.9,1.1-3.7,2.7-5.3,4.8v24.2c1.5,1.8,3.1,3.1,4.8,3.8c1.7,0.7,3.6,1.1,5.7,1.1c2,0,3.7-0.4,5.3-1.1c1.6-0.7,2.9-1.9,4-3.4
			c1.1-1.5,2-3.4,2.5-5.7c0.6-2.3,0.9-5,0.9-8.1c0-3.2-0.3-5.8-0.8-8c-0.5-2.2-1.2-4-2.2-5.3c-0.9-1.4-2.1-2.4-3.4-3
			C751.3,88.3,749.8,88,748,88z"/>
	</g>
	<g>
		<path class="st1" d="M267.4,184.2h-2.6c-0.3,0-0.5-0.1-0.7-0.2c-0.2-0.2-0.3-0.3-0.4-0.6l-2.3-6h-11.2l-2.3,6
			c-0.1,0.2-0.2,0.4-0.4,0.6c-0.2,0.2-0.4,0.2-0.7,0.2H244l10-25h3.4L267.4,184.2z M251.1,174.9h9.3l-3.9-10.2
			c-0.3-0.6-0.5-1.4-0.7-2.4c-0.1,0.5-0.3,0.9-0.4,1.3c-0.1,0.4-0.2,0.8-0.4,1.1L251.1,174.9z"/>
		<path class="st1" d="M270.1,184.2v-17.7h1.8c0.4,0,0.7,0.2,0.8,0.6l0.2,1.9c0.8-0.8,1.6-1.5,2.6-2.1c0.9-0.5,2-0.8,3.3-0.8
			c1,0,1.8,0.2,2.6,0.5c0.7,0.3,1.4,0.8,1.8,1.4c0.5,0.6,0.9,1.3,1.1,2.1c0.3,0.8,0.4,1.7,0.4,2.7v11.2h-3.1v-11.2
			c0-1.3-0.3-2.4-0.9-3.1c-0.6-0.7-1.5-1.1-2.8-1.1c-0.9,0-1.8,0.2-2.6,0.7c-0.8,0.4-1.5,1-2.2,1.8v13H270.1z"/>
		<path class="st1" d="M302.4,184.2h-1.4c-0.3,0-0.5,0-0.7-0.1c-0.2-0.1-0.3-0.3-0.4-0.6l-0.3-1.6c-0.5,0.4-0.9,0.8-1.4,1.1
			c-0.4,0.3-0.9,0.6-1.4,0.8c-0.5,0.2-1,0.4-1.6,0.5c-0.6,0.1-1.2,0.2-1.8,0.2c-0.7,0-1.3-0.1-1.9-0.3c-0.6-0.2-1.1-0.5-1.6-0.9
			c-0.4-0.4-0.8-0.9-1.1-1.5c-0.3-0.6-0.4-1.3-0.4-2.1c0-0.7,0.2-1.4,0.6-2c0.4-0.6,1-1.2,1.9-1.7c0.9-0.5,2-0.9,3.4-1.2
			c1.4-0.3,3.1-0.5,5.1-0.5v-1.4c0-1.4-0.3-2.4-0.9-3.1c-0.6-0.7-1.5-1.1-2.6-1.1c-0.8,0-1.4,0.1-1.9,0.3c-0.5,0.2-1,0.4-1.3,0.6
			c-0.4,0.2-0.7,0.5-1,0.6c-0.3,0.2-0.5,0.3-0.8,0.3c-0.2,0-0.4-0.1-0.5-0.2c-0.2-0.1-0.3-0.2-0.4-0.4l-0.6-1c1-0.9,2-1.6,3.2-2.1
			c1.1-0.5,2.4-0.7,3.7-0.7c1,0,1.9,0.2,2.6,0.5c0.8,0.3,1.4,0.8,1.9,1.4c0.5,0.6,0.9,1.3,1.2,2.1c0.3,0.8,0.4,1.7,0.4,2.7V184.2z
			 M294.4,182.3c0.5,0,1-0.1,1.5-0.2c0.5-0.1,0.9-0.3,1.3-0.5c0.4-0.2,0.8-0.5,1.2-0.7c0.4-0.3,0.7-0.6,1.1-1v-3.6
			c-1.4,0-2.6,0.1-3.6,0.3c-1,0.2-1.8,0.4-2.4,0.7c-0.6,0.3-1.1,0.6-1.4,1c-0.3,0.4-0.4,0.8-0.4,1.3c0,0.5,0.1,0.9,0.2,1.2
			c0.2,0.3,0.4,0.6,0.6,0.8c0.3,0.2,0.6,0.4,0.9,0.5C293.6,182.2,294,182.3,294.4,182.3z"/>
		<path class="st1" d="M310.6,158.5v25.7h-3.1v-25.7H310.6z"/>
		<path class="st1" d="M321.3,189.4c-0.1,0.2-0.2,0.4-0.4,0.6c-0.2,0.1-0.4,0.2-0.7,0.2h-2.3l3.2-7l-7.3-16.6h2.7
			c0.3,0,0.5,0.1,0.6,0.2c0.2,0.1,0.3,0.3,0.3,0.4l4.7,11.1c0.1,0.3,0.2,0.5,0.3,0.8c0.1,0.3,0.1,0.5,0.2,0.8
			c0.1-0.3,0.2-0.5,0.2-0.8c0.1-0.3,0.2-0.5,0.3-0.8l4.6-11.1c0.1-0.2,0.2-0.3,0.4-0.5c0.2-0.1,0.4-0.2,0.5-0.2h2.5L321.3,189.4z"/>
		<path class="st1" d="M339.3,184.5c-1.4,0-2.5-0.4-3.2-1.2c-0.8-0.8-1.1-1.9-1.1-3.4v-10.8h-2.1c-0.2,0-0.3-0.1-0.5-0.2
			c-0.1-0.1-0.2-0.3-0.2-0.5v-1.2l2.9-0.4l0.7-5.5c0-0.2,0.1-0.3,0.2-0.4c0.1-0.1,0.3-0.2,0.5-0.2h1.6v6.1h5.1v2.2H338v10.6
			c0,0.7,0.2,1.3,0.5,1.7c0.4,0.4,0.8,0.5,1.4,0.5c0.3,0,0.6,0,0.8-0.1c0.2-0.1,0.4-0.2,0.6-0.3c0.2-0.1,0.3-0.2,0.4-0.3
			c0.1-0.1,0.2-0.1,0.3-0.1c0.2,0,0.3,0.1,0.4,0.3l0.9,1.5c-0.5,0.5-1.2,0.9-1.9,1.2C340.9,184.3,340.1,184.5,339.3,184.5z"/>
		<path class="st1" d="M351.1,161c0,0.3-0.1,0.6-0.2,0.8c-0.1,0.3-0.3,0.5-0.5,0.7c-0.2,0.2-0.4,0.4-0.7,0.5
			c-0.3,0.1-0.6,0.2-0.9,0.2c-0.3,0-0.6-0.1-0.8-0.2c-0.3-0.1-0.5-0.3-0.7-0.5c-0.2-0.2-0.4-0.4-0.5-0.7c-0.1-0.3-0.2-0.5-0.2-0.8
			c0-0.3,0.1-0.6,0.2-0.9c0.1-0.3,0.3-0.5,0.5-0.7c0.2-0.2,0.4-0.4,0.7-0.5c0.3-0.1,0.5-0.2,0.8-0.2c0.3,0,0.6,0.1,0.9,0.2
			c0.3,0.1,0.5,0.3,0.7,0.5c0.2,0.2,0.4,0.4,0.5,0.7C351,160.4,351.1,160.7,351.1,161z M350.4,166.5v17.7h-3.1v-17.7H350.4z"/>
		<path class="st1" d="M367.9,169.7c-0.1,0.1-0.2,0.2-0.3,0.3c-0.1,0.1-0.2,0.1-0.4,0.1c-0.2,0-0.4-0.1-0.6-0.2
			c-0.2-0.1-0.5-0.3-0.8-0.5c-0.3-0.2-0.7-0.3-1.1-0.5c-0.4-0.1-1-0.2-1.6-0.2c-0.9,0-1.6,0.2-2.3,0.5c-0.7,0.3-1.2,0.8-1.7,1.3
			c-0.4,0.6-0.8,1.3-1,2.1c-0.2,0.8-0.3,1.8-0.3,2.8c0,1.1,0.1,2,0.4,2.9c0.2,0.8,0.6,1.5,1,2.1c0.4,0.6,1,1,1.6,1.3
			c0.6,0.3,1.3,0.4,2.1,0.4c0.8,0,1.4-0.1,1.9-0.3c0.5-0.2,0.9-0.4,1.2-0.6c0.3-0.2,0.6-0.4,0.8-0.6c0.2-0.2,0.4-0.3,0.6-0.3
			c0.3,0,0.5,0.1,0.6,0.3l0.9,1.1c-0.8,0.9-1.7,1.6-2.9,2.1c-1.2,0.4-2.4,0.7-3.6,0.7c-1.1,0-2.1-0.2-3.1-0.6
			c-0.9-0.4-1.8-1-2.5-1.8c-0.7-0.8-1.2-1.7-1.6-2.8c-0.4-1.1-0.6-2.4-0.6-3.9c0-1.3,0.2-2.5,0.5-3.6c0.4-1.1,0.9-2.1,1.6-2.9
			c0.7-0.8,1.6-1.4,2.6-1.9c1-0.5,2.2-0.7,3.6-0.7c1.2,0,2.3,0.2,3.3,0.6c1,0.4,1.8,1,2.5,1.7L367.9,169.7z"/>
		<path class="st1" d="M382.2,169.4c-0.1,0.3-0.4,0.4-0.6,0.4c-0.2,0-0.4-0.1-0.6-0.2c-0.2-0.1-0.5-0.3-0.8-0.4
			c-0.3-0.2-0.7-0.3-1.1-0.4c-0.4-0.1-1-0.2-1.6-0.2c-0.5,0-1,0.1-1.4,0.2c-0.4,0.1-0.8,0.3-1.1,0.6c-0.3,0.2-0.5,0.5-0.7,0.8
			c-0.2,0.3-0.2,0.6-0.2,1c0,0.5,0.1,0.8,0.4,1.1c0.3,0.3,0.6,0.6,1,0.8c0.4,0.2,0.9,0.4,1.5,0.6c0.5,0.2,1.1,0.3,1.7,0.5
			c0.6,0.2,1.1,0.4,1.7,0.6c0.5,0.2,1,0.5,1.5,0.9c0.4,0.3,0.8,0.8,1,1.3c0.3,0.5,0.4,1.1,0.4,1.8c0,0.8-0.1,1.6-0.4,2.3
			c-0.3,0.7-0.7,1.3-1.3,1.8c-0.6,0.5-1.3,0.9-2.1,1.2c-0.8,0.3-1.8,0.4-2.9,0.4c-1.2,0-2.3-0.2-3.3-0.6c-1-0.4-1.8-0.9-2.5-1.5
			l0.7-1.2c0.1-0.2,0.2-0.3,0.3-0.4c0.1-0.1,0.3-0.1,0.5-0.1s0.4,0.1,0.7,0.2c0.2,0.2,0.5,0.3,0.8,0.5c0.3,0.2,0.7,0.4,1.2,0.5
			c0.5,0.2,1.1,0.2,1.8,0.2c0.6,0,1.1-0.1,1.6-0.2c0.5-0.2,0.8-0.4,1.1-0.6c0.3-0.3,0.5-0.6,0.7-0.9c0.1-0.3,0.2-0.7,0.2-1.1
			c0-0.5-0.1-0.9-0.4-1.2c-0.3-0.3-0.6-0.6-1-0.8c-0.4-0.2-0.9-0.4-1.5-0.6c-0.6-0.2-1.1-0.3-1.7-0.5c-0.6-0.2-1.1-0.4-1.7-0.6
			c-0.6-0.2-1-0.5-1.5-0.9c-0.4-0.4-0.8-0.8-1-1.3c-0.3-0.5-0.4-1.2-0.4-1.9c0-0.7,0.1-1.3,0.4-1.9c0.3-0.6,0.7-1.2,1.2-1.6
			s1.2-0.8,2-1.1c0.8-0.3,1.7-0.4,2.7-0.4c1.2,0,2.2,0.2,3.1,0.6c0.9,0.4,1.7,0.9,2.4,1.5L382.2,169.4z"/>
		<path class="st1" d="M416.1,171.7c0,1.9-0.3,3.6-0.9,5.1c-0.6,1.5-1.4,2.8-2.5,3.9c-1.1,1.1-2.4,1.9-3.9,2.5
			c-1.5,0.6-3.2,0.9-5,0.9h-9.3v-25h9.3c1.8,0,3.5,0.3,5,0.9c1.5,0.6,2.8,1.4,3.9,2.5c1.1,1.1,1.9,2.4,2.5,3.9
			C415.8,168.1,416.1,169.8,416.1,171.7z M412.7,171.7c0-1.5-0.2-2.9-0.6-4.1c-0.4-1.2-1-2.2-1.8-3.1c-0.8-0.8-1.7-1.5-2.8-1.9
			c-1.1-0.4-2.3-0.7-3.6-0.7h-5.9v19.5h5.9c1.3,0,2.6-0.2,3.6-0.7c1.1-0.4,2-1.1,2.8-1.9c0.8-0.8,1.4-1.8,1.8-3.1
			C412.4,174.6,412.7,173.2,412.7,171.7z"/>
		<path class="st1" d="M420.2,184.2v-17.7h1.8c0.3,0,0.6,0.1,0.7,0.2c0.1,0.1,0.2,0.4,0.3,0.7l0.2,2.8c0.6-1.2,1.4-2.2,2.2-2.9
			c0.9-0.7,1.9-1,3.1-1c0.5,0,0.9,0.1,1.3,0.2c0.4,0.1,0.8,0.3,1.1,0.5l-0.4,2.3c-0.1,0.3-0.3,0.4-0.5,0.4c-0.2,0-0.4-0.1-0.7-0.2
			c-0.3-0.1-0.8-0.2-1.4-0.2c-1.1,0-2,0.3-2.7,0.9c-0.7,0.6-1.3,1.5-1.8,2.7v11.2H420.2z"/>
		<path class="st1" d="M438.4,161c0,0.3-0.1,0.6-0.2,0.8c-0.1,0.3-0.3,0.5-0.5,0.7c-0.2,0.2-0.4,0.4-0.7,0.5
			c-0.3,0.1-0.6,0.2-0.9,0.2c-0.3,0-0.6-0.1-0.8-0.2c-0.3-0.1-0.5-0.3-0.7-0.5c-0.2-0.2-0.4-0.4-0.5-0.7c-0.1-0.3-0.2-0.5-0.2-0.8
			c0-0.3,0.1-0.6,0.2-0.9c0.1-0.3,0.3-0.5,0.5-0.7c0.2-0.2,0.4-0.4,0.7-0.5c0.3-0.1,0.5-0.2,0.8-0.2c0.3,0,0.6,0.1,0.9,0.2
			c0.3,0.1,0.5,0.3,0.7,0.5c0.2,0.2,0.4,0.4,0.5,0.7C438.4,160.4,438.4,160.7,438.4,161z M437.7,166.5v17.7h-3.1v-17.7H437.7z"/>
		<path class="st1" d="M441,166.5h2.5c0.2,0,0.4,0.1,0.6,0.2c0.2,0.1,0.3,0.3,0.3,0.5l4.5,11.4c0.2,0.4,0.3,0.8,0.4,1.3
			c0.1,0.4,0.2,0.8,0.3,1.2c0.1-0.4,0.2-0.8,0.3-1.2c0.1-0.4,0.2-0.8,0.4-1.3l4.5-11.4c0.1-0.2,0.2-0.3,0.3-0.5
			c0.2-0.1,0.4-0.2,0.6-0.2h2.4l-7.2,17.7h-2.8L441,166.5z"/>
		<path class="st1" d="M467.6,166.2c1.1,0,2,0.2,2.9,0.5c0.9,0.4,1.7,0.9,2.3,1.5c0.7,0.7,1.2,1.5,1.5,2.5c0.4,1,0.5,2.1,0.5,3.4
			c0,0.5-0.1,0.8-0.2,1c-0.1,0.2-0.3,0.2-0.6,0.2h-11.7c0,1.1,0.2,2.1,0.5,2.9c0.3,0.8,0.7,1.5,1.2,2.1c0.5,0.6,1.1,1,1.7,1.2
			c0.7,0.3,1.4,0.4,2.3,0.4c0.8,0,1.5-0.1,2-0.3c0.6-0.2,1-0.4,1.5-0.6c0.4-0.2,0.7-0.4,1-0.6c0.3-0.2,0.5-0.3,0.7-0.3
			c0.3,0,0.5,0.1,0.6,0.3l0.9,1.1c-0.4,0.5-0.8,0.9-1.4,1.2c-0.5,0.3-1.1,0.6-1.7,0.8c-0.6,0.2-1.2,0.4-1.9,0.5
			c-0.7,0.1-1.3,0.2-1.9,0.2c-1.2,0-2.3-0.2-3.4-0.6c-1-0.4-1.9-1-2.7-1.8c-0.8-0.8-1.3-1.8-1.8-3c-0.4-1.2-0.6-2.5-0.6-4
			c0-1.2,0.2-2.4,0.6-3.5c0.4-1.1,0.9-2,1.6-2.8c0.7-0.8,1.6-1.4,2.6-1.8C465.2,166.5,466.3,166.2,467.6,166.2z M467.7,168.5
			c-1.5,0-2.7,0.4-3.5,1.3c-0.9,0.9-1.4,2.1-1.6,3.6h9.6c0-0.7-0.1-1.4-0.3-2c-0.2-0.6-0.5-1.1-0.9-1.6c-0.4-0.4-0.9-0.8-1.4-1
			C469,168.6,468.4,168.5,467.7,168.5z"/>
		<path class="st1" d="M478.9,184.2v-17.7h1.8c0.4,0,0.7,0.2,0.8,0.6l0.2,1.9c0.8-0.8,1.6-1.5,2.6-2.1c0.9-0.5,2-0.8,3.3-0.8
			c1,0,1.8,0.2,2.6,0.5c0.7,0.3,1.4,0.8,1.8,1.4c0.5,0.6,0.9,1.3,1.1,2.1c0.3,0.8,0.4,1.7,0.4,2.7v11.2h-3.1v-11.2
			c0-1.3-0.3-2.4-0.9-3.1c-0.6-0.7-1.5-1.1-2.8-1.1c-0.9,0-1.8,0.2-2.6,0.7c-0.8,0.4-1.5,1-2.2,1.8v13H478.9z"/>
		<path class="st1" d="M505.5,184.2v-25h8c1.5,0,2.9,0.2,4,0.5c1.1,0.3,2,0.7,2.7,1.3c0.7,0.6,1.2,1.2,1.6,2
			c0.3,0.8,0.5,1.7,0.5,2.7c0,0.6-0.1,1.2-0.3,1.8c-0.2,0.6-0.5,1.1-0.9,1.6c-0.4,0.5-0.9,0.9-1.5,1.3c-0.6,0.4-1.3,0.7-2.1,0.9
			c1.8,0.4,3.2,1,4.1,2c0.9,1,1.4,2.2,1.4,3.8c0,1.1-0.2,2-0.6,2.9c-0.4,0.9-1,1.6-1.7,2.2c-0.8,0.6-1.7,1.1-2.8,1.5
			c-1.1,0.3-2.3,0.5-3.7,0.5H505.5z M508.8,170.4h4.5c1,0,1.8-0.1,2.5-0.3c0.7-0.2,1.3-0.5,1.7-0.9c0.5-0.4,0.8-0.8,1-1.4
			c0.2-0.5,0.3-1.1,0.3-1.7c0-1.5-0.4-2.5-1.3-3.2c-0.9-0.7-2.3-1-4.1-1h-4.6V170.4z M508.8,172.8v8.7h5.4c1,0,1.8-0.1,2.5-0.3
			c0.7-0.2,1.3-0.5,1.7-0.9c0.4-0.4,0.8-0.9,1-1.4c0.2-0.6,0.3-1.2,0.3-1.8c0-1.3-0.5-2.3-1.4-3.1c-0.9-0.7-2.3-1.1-4.1-1.1H508.8z"
			/>
		<path class="st1" d="M530.2,166.5v11.3c0,1.3,0.3,2.4,0.9,3.1c0.6,0.7,1.5,1.1,2.8,1.1c0.9,0,1.8-0.2,2.6-0.6
			c0.8-0.4,1.5-1,2.2-1.8v-13h3.1v17.7H540c-0.4,0-0.7-0.2-0.8-0.6l-0.2-1.9c-0.8,0.8-1.6,1.5-2.6,2c-1,0.5-2,0.8-3.3,0.8
			c-1,0-1.8-0.2-2.6-0.5c-0.7-0.3-1.4-0.8-1.9-1.4c-0.5-0.6-0.9-1.3-1.1-2.1c-0.3-0.8-0.4-1.7-0.4-2.7v-11.3H530.2z"/>
		<path class="st1" d="M557,169.4c-0.1,0.3-0.4,0.4-0.6,0.4c-0.2,0-0.4-0.1-0.6-0.2c-0.2-0.1-0.5-0.3-0.8-0.4
			c-0.3-0.2-0.7-0.3-1.1-0.4c-0.4-0.1-1-0.2-1.6-0.2c-0.5,0-1,0.1-1.4,0.2c-0.4,0.1-0.8,0.3-1.1,0.6c-0.3,0.2-0.5,0.5-0.7,0.8
			c-0.2,0.3-0.2,0.6-0.2,1c0,0.5,0.1,0.8,0.4,1.1c0.3,0.3,0.6,0.6,1,0.8c0.4,0.2,0.9,0.4,1.5,0.6c0.5,0.2,1.1,0.3,1.7,0.5
			c0.6,0.2,1.1,0.4,1.7,0.6c0.5,0.2,1,0.5,1.5,0.9c0.4,0.3,0.8,0.8,1,1.3c0.3,0.5,0.4,1.1,0.4,1.8c0,0.8-0.1,1.6-0.4,2.3
			c-0.3,0.7-0.7,1.3-1.3,1.8c-0.6,0.5-1.3,0.9-2.1,1.2c-0.8,0.3-1.8,0.4-2.9,0.4c-1.2,0-2.3-0.2-3.3-0.6c-1-0.4-1.8-0.9-2.5-1.5
			l0.7-1.2c0.1-0.2,0.2-0.3,0.3-0.4c0.1-0.1,0.3-0.1,0.5-0.1c0.2,0,0.4,0.1,0.7,0.2c0.2,0.2,0.5,0.3,0.8,0.5
			c0.3,0.2,0.7,0.4,1.2,0.5c0.5,0.2,1.1,0.2,1.8,0.2c0.6,0,1.1-0.1,1.6-0.2c0.5-0.2,0.8-0.4,1.1-0.6c0.3-0.3,0.5-0.6,0.7-0.9
			c0.1-0.3,0.2-0.7,0.2-1.1c0-0.5-0.1-0.9-0.4-1.2c-0.3-0.3-0.6-0.6-1-0.8c-0.4-0.2-0.9-0.4-1.5-0.6c-0.6-0.2-1.1-0.3-1.7-0.5
			c-0.6-0.2-1.1-0.4-1.7-0.6c-0.6-0.2-1-0.5-1.5-0.9c-0.4-0.4-0.8-0.8-1-1.3c-0.3-0.5-0.4-1.2-0.4-1.9c0-0.7,0.1-1.3,0.4-1.9
			c0.3-0.6,0.7-1.2,1.2-1.6s1.2-0.8,2-1.1c0.8-0.3,1.7-0.4,2.7-0.4c1.2,0,2.2,0.2,3.1,0.6c0.9,0.4,1.7,0.9,2.4,1.5L557,169.4z"/>
		<path class="st1" d="M566.2,161c0,0.3-0.1,0.6-0.2,0.8c-0.1,0.3-0.3,0.5-0.5,0.7c-0.2,0.2-0.4,0.4-0.7,0.5
			c-0.3,0.1-0.6,0.2-0.9,0.2c-0.3,0-0.6-0.1-0.8-0.2c-0.3-0.1-0.5-0.3-0.7-0.5c-0.2-0.2-0.4-0.4-0.5-0.7c-0.1-0.3-0.2-0.5-0.2-0.8
			c0-0.3,0.1-0.6,0.2-0.9c0.1-0.3,0.3-0.5,0.5-0.7c0.2-0.2,0.4-0.4,0.7-0.5c0.3-0.1,0.5-0.2,0.8-0.2c0.3,0,0.6,0.1,0.9,0.2
			c0.3,0.1,0.5,0.3,0.7,0.5c0.2,0.2,0.4,0.4,0.5,0.7C566.1,160.4,566.2,160.7,566.2,161z M565.5,166.5v17.7h-3.1v-17.7H565.5z"/>
		<path class="st1" d="M571,184.2v-17.7h1.8c0.4,0,0.7,0.2,0.8,0.6l0.2,1.9c0.8-0.8,1.6-1.5,2.6-2.1c0.9-0.5,2-0.8,3.3-0.8
			c1,0,1.8,0.2,2.6,0.5c0.7,0.3,1.4,0.8,1.8,1.4c0.5,0.6,0.9,1.3,1.1,2.1c0.3,0.8,0.4,1.7,0.4,2.7v11.2h-3.1v-11.2
			c0-1.3-0.3-2.4-0.9-3.1c-0.6-0.7-1.5-1.1-2.8-1.1c-0.9,0-1.8,0.2-2.6,0.7c-0.8,0.4-1.5,1-2.2,1.8v13H571z"/>
		<path class="st1" d="M597.3,166.2c1.1,0,2,0.2,2.9,0.5c0.9,0.4,1.7,0.9,2.3,1.5c0.7,0.7,1.2,1.5,1.5,2.5c0.4,1,0.6,2.1,0.6,3.4
			c0,0.5-0.1,0.8-0.2,1c-0.1,0.2-0.3,0.2-0.6,0.2h-11.7c0,1.1,0.2,2.1,0.5,2.9c0.3,0.8,0.7,1.5,1.2,2.1c0.5,0.6,1.1,1,1.7,1.2
			c0.7,0.3,1.4,0.4,2.3,0.4c0.8,0,1.4-0.1,2-0.3c0.6-0.2,1-0.4,1.5-0.6c0.4-0.2,0.7-0.4,1-0.6c0.3-0.2,0.5-0.3,0.7-0.3
			c0.3,0,0.5,0.1,0.6,0.3l0.9,1.1c-0.4,0.5-0.8,0.9-1.4,1.2c-0.5,0.3-1.1,0.6-1.7,0.8c-0.6,0.2-1.2,0.4-1.9,0.5
			c-0.7,0.1-1.3,0.2-1.9,0.2c-1.2,0-2.3-0.2-3.4-0.6c-1-0.4-1.9-1-2.7-1.8c-0.8-0.8-1.3-1.8-1.8-3c-0.4-1.2-0.6-2.5-0.6-4
			c0-1.2,0.2-2.4,0.6-3.5c0.4-1.1,0.9-2,1.6-2.8c0.7-0.8,1.6-1.4,2.6-1.8C594.9,166.5,596.1,166.2,597.3,166.2z M597.4,168.5
			c-1.5,0-2.7,0.4-3.5,1.3c-0.9,0.9-1.4,2.1-1.6,3.6h9.6c0-0.7-0.1-1.4-0.3-2c-0.2-0.6-0.5-1.1-0.9-1.6c-0.4-0.4-0.9-0.8-1.4-1
			C598.8,168.6,598.1,168.5,597.4,168.5z"/>
		<path class="st1" d="M618.7,169.4c-0.1,0.3-0.4,0.4-0.6,0.4c-0.2,0-0.4-0.1-0.6-0.2c-0.2-0.1-0.5-0.3-0.8-0.4
			c-0.3-0.2-0.7-0.3-1.1-0.4c-0.4-0.1-1-0.2-1.6-0.2c-0.5,0-1,0.1-1.4,0.2c-0.4,0.1-0.8,0.3-1.1,0.6c-0.3,0.2-0.5,0.5-0.7,0.8
			c-0.2,0.3-0.2,0.6-0.2,1c0,0.5,0.1,0.8,0.4,1.1c0.3,0.3,0.6,0.6,1,0.8c0.4,0.2,0.9,0.4,1.5,0.6c0.5,0.2,1.1,0.3,1.7,0.5
			c0.6,0.2,1.1,0.4,1.7,0.6c0.5,0.2,1,0.5,1.5,0.9c0.4,0.3,0.8,0.8,1,1.3c0.3,0.5,0.4,1.1,0.4,1.8c0,0.8-0.1,1.6-0.4,2.3
			c-0.3,0.7-0.7,1.3-1.3,1.8c-0.6,0.5-1.3,0.9-2.1,1.2c-0.8,0.3-1.8,0.4-2.9,0.4c-1.2,0-2.3-0.2-3.3-0.6c-1-0.4-1.8-0.9-2.5-1.5
			l0.7-1.2c0.1-0.2,0.2-0.3,0.3-0.4c0.1-0.1,0.3-0.1,0.5-0.1c0.2,0,0.4,0.1,0.7,0.2c0.2,0.2,0.5,0.3,0.8,0.5
			c0.3,0.2,0.7,0.4,1.2,0.5c0.5,0.2,1.1,0.2,1.8,0.2c0.6,0,1.1-0.1,1.6-0.2c0.5-0.2,0.8-0.4,1.1-0.6c0.3-0.3,0.5-0.6,0.7-0.9
			c0.1-0.3,0.2-0.7,0.2-1.1c0-0.5-0.1-0.9-0.4-1.2c-0.3-0.3-0.6-0.6-1-0.8c-0.4-0.2-0.9-0.4-1.5-0.6c-0.6-0.2-1.1-0.3-1.7-0.5
			c-0.6-0.2-1.1-0.4-1.7-0.6c-0.6-0.2-1-0.5-1.5-0.9c-0.4-0.4-0.8-0.8-1-1.3c-0.3-0.5-0.4-1.2-0.4-1.9c0-0.7,0.1-1.3,0.4-1.9
			c0.3-0.6,0.7-1.2,1.2-1.6c0.5-0.5,1.2-0.8,2-1.1c0.8-0.3,1.7-0.4,2.7-0.4c1.2,0,2.2,0.2,3.1,0.6c0.9,0.4,1.7,0.9,2.4,1.5
			L618.7,169.4z"/>
		<path class="st1" d="M633.9,169.4c-0.1,0.3-0.4,0.4-0.6,0.4c-0.2,0-0.4-0.1-0.6-0.2c-0.2-0.1-0.5-0.3-0.8-0.4
			c-0.3-0.2-0.7-0.3-1.1-0.4c-0.4-0.1-1-0.2-1.6-0.2c-0.5,0-1,0.1-1.4,0.2c-0.4,0.1-0.8,0.3-1.1,0.6c-0.3,0.2-0.5,0.5-0.7,0.8
			c-0.2,0.3-0.2,0.6-0.2,1c0,0.5,0.1,0.8,0.4,1.1c0.3,0.3,0.6,0.6,1,0.8c0.4,0.2,0.9,0.4,1.5,0.6c0.5,0.2,1.1,0.3,1.7,0.5
			c0.6,0.2,1.1,0.4,1.7,0.6c0.5,0.2,1,0.5,1.5,0.9c0.4,0.3,0.8,0.8,1,1.3c0.3,0.5,0.4,1.1,0.4,1.8c0,0.8-0.1,1.6-0.4,2.3
			c-0.3,0.7-0.7,1.3-1.3,1.8c-0.6,0.5-1.3,0.9-2.1,1.2c-0.8,0.3-1.8,0.4-2.9,0.4c-1.2,0-2.3-0.2-3.3-0.6c-1-0.4-1.8-0.9-2.5-1.5
			l0.7-1.2c0.1-0.2,0.2-0.3,0.3-0.4c0.1-0.1,0.3-0.1,0.5-0.1c0.2,0,0.4,0.1,0.7,0.2c0.2,0.2,0.5,0.3,0.8,0.5
			c0.3,0.2,0.7,0.4,1.2,0.5c0.5,0.2,1.1,0.2,1.8,0.2c0.6,0,1.1-0.1,1.6-0.2c0.5-0.2,0.8-0.4,1.1-0.6c0.3-0.3,0.5-0.6,0.7-0.9
			c0.1-0.3,0.2-0.7,0.2-1.1c0-0.5-0.1-0.9-0.4-1.2c-0.3-0.3-0.6-0.6-1-0.8c-0.4-0.2-0.9-0.4-1.5-0.6c-0.6-0.2-1.1-0.3-1.7-0.5
			c-0.6-0.2-1.1-0.4-1.7-0.6c-0.6-0.2-1-0.5-1.5-0.9c-0.4-0.4-0.8-0.8-1-1.3c-0.3-0.5-0.4-1.2-0.4-1.9c0-0.7,0.1-1.3,0.4-1.9
			c0.3-0.6,0.7-1.2,1.2-1.6c0.5-0.5,1.2-0.8,2-1.1c0.8-0.3,1.7-0.4,2.7-0.4c1.2,0,2.2,0.2,3.1,0.6c0.9,0.4,1.7,0.9,2.4,1.5
			L633.9,169.4z"/>
		<path class="st1" d="M658.9,163.1c-0.1,0.2-0.2,0.3-0.3,0.4c-0.1,0.1-0.3,0.1-0.5,0.1c-0.2,0-0.4-0.1-0.7-0.3
			c-0.3-0.2-0.6-0.4-1-0.7c-0.4-0.2-0.9-0.5-1.4-0.7c-0.6-0.2-1.2-0.3-2-0.3c-0.8,0-1.4,0.1-2,0.3c-0.6,0.2-1.1,0.5-1.5,0.8
			c-0.4,0.4-0.7,0.8-0.9,1.2c-0.2,0.5-0.3,1-0.3,1.5c0,0.7,0.2,1.3,0.5,1.7c0.3,0.5,0.8,0.9,1.4,1.2c0.6,0.3,1.2,0.6,1.9,0.8
			c0.7,0.2,1.4,0.5,2.2,0.7c0.7,0.3,1.5,0.5,2.2,0.9c0.7,0.3,1.4,0.7,1.9,1.2c0.6,0.5,1,1.1,1.4,1.8c0.3,0.7,0.5,1.6,0.5,2.6
			c0,1.1-0.2,2.1-0.6,3.1c-0.4,1-0.9,1.8-1.6,2.5c-0.7,0.7-1.6,1.3-2.6,1.7c-1,0.4-2.2,0.6-3.5,0.6c-1.6,0-3.1-0.3-4.4-0.9
			c-1.3-0.6-2.5-1.4-3.4-2.4l1-1.6c0.1-0.1,0.2-0.2,0.3-0.3c0.1-0.1,0.3-0.1,0.4-0.1c0.2,0,0.5,0.1,0.8,0.4c0.3,0.3,0.7,0.6,1.2,0.9
			c0.5,0.3,1,0.6,1.7,0.9c0.7,0.3,1.5,0.4,2.4,0.4c0.8,0,1.5-0.1,2.1-0.3c0.6-0.2,1.2-0.5,1.6-0.9c0.4-0.4,0.8-0.9,1-1.4
			c0.2-0.6,0.3-1.2,0.3-1.9c0-0.8-0.2-1.4-0.5-1.9c-0.3-0.5-0.8-0.9-1.4-1.2c-0.6-0.3-1.2-0.6-1.9-0.8c-0.7-0.2-1.4-0.5-2.2-0.7
			c-0.8-0.2-1.5-0.5-2.2-0.8c-0.7-0.3-1.4-0.7-1.9-1.2c-0.6-0.5-1-1.1-1.4-1.9c-0.3-0.7-0.5-1.7-0.5-2.8c0-0.9,0.2-1.7,0.5-2.6
			c0.3-0.8,0.8-1.6,1.5-2.2c0.7-0.6,1.5-1.2,2.4-1.5c1-0.4,2.1-0.6,3.3-0.6c1.4,0,2.7,0.2,3.8,0.7c1.2,0.4,2.2,1.1,3,1.9
			L658.9,163.1z"/>
		<path class="st1" d="M671.1,166.2c1.1,0,2,0.2,2.9,0.5c0.9,0.4,1.7,0.9,2.3,1.5c0.7,0.7,1.2,1.5,1.5,2.5c0.4,1,0.6,2.1,0.6,3.4
			c0,0.5-0.1,0.8-0.2,1c-0.1,0.2-0.3,0.2-0.6,0.2h-11.7c0,1.1,0.2,2.1,0.5,2.9c0.3,0.8,0.7,1.5,1.2,2.1c0.5,0.6,1.1,1,1.7,1.2
			c0.7,0.3,1.4,0.4,2.3,0.4c0.8,0,1.4-0.1,2-0.3c0.6-0.2,1-0.4,1.5-0.6c0.4-0.2,0.7-0.4,1-0.6c0.3-0.2,0.5-0.3,0.7-0.3
			c0.3,0,0.5,0.1,0.6,0.3l0.9,1.1c-0.4,0.5-0.8,0.9-1.4,1.2c-0.5,0.3-1.1,0.6-1.7,0.8c-0.6,0.2-1.2,0.4-1.9,0.5
			c-0.7,0.1-1.3,0.2-1.9,0.2c-1.2,0-2.3-0.2-3.4-0.6s-1.9-1-2.7-1.8c-0.8-0.8-1.3-1.8-1.8-3c-0.4-1.2-0.6-2.5-0.6-4
			c0-1.2,0.2-2.4,0.6-3.5c0.4-1.1,0.9-2,1.6-2.8c0.7-0.8,1.6-1.4,2.6-1.8C668.6,166.5,669.8,166.2,671.1,166.2z M671.1,168.5
			c-1.5,0-2.7,0.4-3.5,1.3c-0.9,0.9-1.4,2.1-1.6,3.6h9.6c0-0.7-0.1-1.4-0.3-2c-0.2-0.6-0.5-1.1-0.9-1.6c-0.4-0.4-0.9-0.8-1.4-1
			C672.5,168.6,671.8,168.5,671.1,168.5z"/>
		<path class="st1" d="M682.3,184.2v-17.7h1.8c0.3,0,0.6,0.1,0.7,0.2c0.1,0.1,0.2,0.4,0.3,0.7l0.2,2.8c0.6-1.2,1.4-2.2,2.2-2.9
			c0.9-0.7,1.9-1,3.1-1c0.5,0,0.9,0.1,1.3,0.2c0.4,0.1,0.8,0.3,1.1,0.5l-0.4,2.3c-0.1,0.3-0.3,0.4-0.5,0.4c-0.2,0-0.4-0.1-0.7-0.2
			c-0.3-0.1-0.8-0.2-1.4-0.2c-1.1,0-2,0.3-2.7,0.9c-0.7,0.6-1.3,1.5-1.8,2.7v11.2H682.3z"/>
		<path class="st1" d="M694.2,166.5h2.5c0.2,0,0.4,0.1,0.6,0.2c0.2,0.1,0.3,0.3,0.3,0.5l4.5,11.4c0.2,0.4,0.3,0.8,0.4,1.3
			c0.1,0.4,0.2,0.8,0.3,1.2c0.1-0.4,0.2-0.8,0.3-1.2c0.1-0.4,0.2-0.8,0.4-1.3l4.5-11.4c0.1-0.2,0.2-0.3,0.3-0.5
			c0.2-0.1,0.4-0.2,0.6-0.2h2.4l-7.2,17.7h-2.8L694.2,166.5z"/>
		<path class="st1" d="M718.4,161c0,0.3-0.1,0.6-0.2,0.8c-0.1,0.3-0.3,0.5-0.5,0.7c-0.2,0.2-0.4,0.4-0.7,0.5
			c-0.3,0.1-0.6,0.2-0.9,0.2c-0.3,0-0.6-0.1-0.8-0.2c-0.3-0.1-0.5-0.3-0.7-0.5c-0.2-0.2-0.4-0.4-0.5-0.7c-0.1-0.3-0.2-0.5-0.2-0.8
			c0-0.3,0.1-0.6,0.2-0.9c0.1-0.3,0.3-0.5,0.5-0.7c0.2-0.2,0.4-0.4,0.7-0.5c0.3-0.1,0.5-0.2,0.8-0.2c0.3,0,0.6,0.1,0.9,0.2
			c0.3,0.1,0.5,0.3,0.7,0.5c0.2,0.2,0.4,0.4,0.5,0.7C718.3,160.4,718.4,160.7,718.4,161z M717.7,166.5v17.7h-3.1v-17.7H717.7z"/>
		<path class="st1" d="M735.2,169.7c-0.1,0.1-0.2,0.2-0.3,0.3c-0.1,0.1-0.2,0.1-0.4,0.1c-0.2,0-0.4-0.1-0.6-0.2
			c-0.2-0.1-0.5-0.3-0.8-0.5c-0.3-0.2-0.7-0.3-1.1-0.5c-0.4-0.1-1-0.2-1.6-0.2c-0.9,0-1.6,0.2-2.3,0.5c-0.7,0.3-1.2,0.8-1.7,1.3
			c-0.4,0.6-0.8,1.3-1,2.1c-0.2,0.8-0.3,1.8-0.3,2.8c0,1.1,0.1,2,0.4,2.9c0.2,0.8,0.6,1.5,1,2.1c0.4,0.6,1,1,1.6,1.3
			c0.6,0.3,1.3,0.4,2.1,0.4c0.8,0,1.4-0.1,1.9-0.3c0.5-0.2,0.9-0.4,1.2-0.6c0.3-0.2,0.6-0.4,0.8-0.6c0.2-0.2,0.4-0.3,0.6-0.3
			c0.3,0,0.5,0.1,0.6,0.3l0.9,1.1c-0.8,0.9-1.7,1.6-2.9,2.1c-1.1,0.4-2.4,0.7-3.6,0.7c-1.1,0-2.1-0.2-3.1-0.6
			c-0.9-0.4-1.8-1-2.5-1.8c-0.7-0.8-1.2-1.7-1.6-2.8c-0.4-1.1-0.6-2.4-0.6-3.9c0-1.3,0.2-2.5,0.5-3.6c0.4-1.1,0.9-2.1,1.6-2.9
			c0.7-0.8,1.6-1.4,2.6-1.9c1-0.5,2.2-0.7,3.6-0.7c1.2,0,2.3,0.2,3.3,0.6c1,0.4,1.8,1,2.5,1.7L735.2,169.7z"/>
		<path class="st1" d="M746.4,166.2c1.1,0,2,0.2,2.9,0.5c0.9,0.4,1.7,0.9,2.3,1.5c0.7,0.7,1.2,1.5,1.5,2.5c0.4,1,0.6,2.1,0.6,3.4
			c0,0.5-0.1,0.8-0.2,1c-0.1,0.2-0.3,0.2-0.6,0.2h-11.7c0,1.1,0.2,2.1,0.5,2.9c0.3,0.8,0.7,1.5,1.2,2.1c0.5,0.6,1.1,1,1.7,1.2
			c0.7,0.3,1.4,0.4,2.3,0.4c0.8,0,1.4-0.1,2-0.3c0.6-0.2,1-0.4,1.5-0.6c0.4-0.2,0.7-0.4,1-0.6c0.3-0.2,0.5-0.3,0.7-0.3
			c0.3,0,0.5,0.1,0.6,0.3l0.9,1.1c-0.4,0.5-0.8,0.9-1.4,1.2c-0.5,0.3-1.1,0.6-1.7,0.8c-0.6,0.2-1.2,0.4-1.9,0.5
			c-0.7,0.1-1.3,0.2-1.9,0.2c-1.2,0-2.3-0.2-3.4-0.6c-1-0.4-1.9-1-2.7-1.8c-0.8-0.8-1.3-1.8-1.8-3c-0.4-1.2-0.6-2.5-0.6-4
			c0-1.2,0.2-2.4,0.6-3.5c0.4-1.1,0.9-2,1.6-2.8c0.7-0.8,1.6-1.4,2.6-1.8C744,166.5,745.2,166.2,746.4,166.2z M746.5,168.5
			c-1.5,0-2.7,0.4-3.5,1.3c-0.9,0.9-1.4,2.1-1.6,3.6h9.6c0-0.7-0.1-1.4-0.3-2c-0.2-0.6-0.5-1.1-0.9-1.6c-0.4-0.4-0.9-0.8-1.4-1
			C747.8,168.6,747.2,168.5,746.5,168.5z"/>
		<path class="st1" d="M767.8,169.4c-0.1,0.3-0.4,0.4-0.6,0.4c-0.2,0-0.4-0.1-0.6-0.2c-0.2-0.1-0.5-0.3-0.8-0.4
			c-0.3-0.2-0.7-0.3-1.1-0.4c-0.4-0.1-1-0.2-1.6-0.2c-0.5,0-1,0.1-1.4,0.2c-0.4,0.1-0.8,0.3-1.1,0.6c-0.3,0.2-0.5,0.5-0.7,0.8
			c-0.2,0.3-0.2,0.6-0.2,1c0,0.5,0.1,0.8,0.4,1.1c0.3,0.3,0.6,0.6,1,0.8c0.4,0.2,0.9,0.4,1.5,0.6c0.5,0.2,1.1,0.3,1.7,0.5
			c0.6,0.2,1.1,0.4,1.7,0.6c0.5,0.2,1,0.5,1.5,0.9c0.4,0.3,0.8,0.8,1,1.3c0.3,0.5,0.4,1.1,0.4,1.8c0,0.8-0.1,1.6-0.4,2.3
			c-0.3,0.7-0.7,1.3-1.3,1.8c-0.6,0.5-1.3,0.9-2.1,1.2c-0.8,0.3-1.8,0.4-2.9,0.4c-1.2,0-2.3-0.2-3.3-0.6c-1-0.4-1.8-0.9-2.5-1.5
			l0.7-1.2c0.1-0.2,0.2-0.3,0.3-0.4c0.1-0.1,0.3-0.1,0.5-0.1c0.2,0,0.4,0.1,0.7,0.2c0.2,0.2,0.5,0.3,0.8,0.5
			c0.3,0.2,0.7,0.4,1.2,0.5c0.5,0.2,1.1,0.2,1.8,0.2c0.6,0,1.1-0.1,1.6-0.2c0.5-0.2,0.8-0.4,1.1-0.6c0.3-0.3,0.5-0.6,0.7-0.9
			c0.1-0.3,0.2-0.7,0.2-1.1c0-0.5-0.1-0.9-0.4-1.2c-0.3-0.3-0.6-0.6-1-0.8c-0.4-0.2-0.9-0.4-1.5-0.6c-0.6-0.2-1.1-0.3-1.7-0.5
			c-0.6-0.2-1.1-0.4-1.7-0.6c-0.6-0.2-1-0.5-1.5-0.9c-0.4-0.4-0.8-0.8-1-1.3c-0.3-0.5-0.4-1.2-0.4-1.9c0-0.7,0.1-1.3,0.4-1.9
			c0.3-0.6,0.7-1.2,1.2-1.6s1.2-0.8,2-1.1c0.8-0.3,1.7-0.4,2.7-0.4c1.2,0,2.2,0.2,3.1,0.6c0.9,0.4,1.7,0.9,2.4,1.5L767.8,169.4z"/>
	</g>
</g>
</svg>
